<!-- Generator: Adobe Illustrator 17.0.0, SVG Export Plug-In  -->
<svg version="1.1"
	 xmlns="http://www.w3.org/2000/svg" xmlns:xlink="http://www.w3.org/1999/xlink" xmlns:a="http://ns.adobe.com/AdobeSVGViewerExtensions/3.0/"
	 x="0px" y="0px" width="1318.183px" height="864.162px" viewBox="0 0 1318.183 864.162"
	 enable-background="new 0 0 1318.183 864.162" xml:space="preserve">
<defs>
</defs>
<g>
	<defs>
		<rect id="SVGID_1_" x="235.103" y="32.606" width="771" height="140"/>
	</defs>
	<clipPath id="SVGID_2_">
		<use xlink:href="#SVGID_1_"  overflow="visible"/>
	</clipPath>
	<g clip-path="url(#SVGID_2_)">
		<defs>
			<path id="SVGID_3_" d="M1199.93,36.606H708.413H621.43h-1.655h-87.712H40.546c0,0-25.376,17.684-7.723,107.051
				c0,0,18.204,76.949,68.404,97.949h40.27l6.068,42.898c0,0,14.343-2.961,28.134-3.513c13.791-0.552,22.066,5.967,22.066,5.967
				s7.171-7.774,24.824-6.946c17.653,0.827,24.548,6.87,24.548,6.87s2.482-5.805,21.79-6.632
				c19.308-0.827,27.307,6.613,27.307,6.613s4.689-7.726,23.169-7.175c18.48,0.552,24.272,7.17,24.272,7.17
				s3.861-6.069,24.548-7.172c20.687-1.103,25.927,7.171,25.927,7.171s6.344-7.723,23.445-7.172
				c17.101,0.552,24.824,7.171,24.824,7.171s2.051-6.344,24.393-6.62c22.342-0.276,23.289,6.62,23.289,6.62v-7.171l59.734,0.827
				l23.247,287.96L365.565,791.061c0,0-12.324,31.03,0.088,44.27c12.412,13.24,25.696,21.101,55.071,21.928l0.85,6.62
				c0,0,0.011-7.447,26.49-7.447c26.479,0,27.726,7.447,27.726,7.447s1.658-8.275,28.137-7.861c0,0,16.749-2.707,24.088,7.861
				l0.154-8.437c18.348,3.364,50.764-32.836,65.902-50.836h0.033v12h21v-23.89c0,0,0.025-7.202,4.5-7.81
				c4.475,0.608,4.5,7.81,4.5,7.81v23.89h21v-12h1.304c15.137,18,47.553,54.199,65.901,50.836l0.153,8.72
				c7.339-10.568,24.087-8.003,24.087-8.003c26.479-0.414,28.134,7.79,28.134,7.79s1.241-7.483,27.72-7.483s26.479,7.43,26.479,7.43
				l0.827-6.629c29.375-0.827,42.615-8.693,55.027-21.932s0-44.272,0-44.272L667.039,568.473l22.965-287.96l59.098-0.828v7.171
				c0,0,1.583-6.896,23.925-6.62c22.342,0.276,25.064,6.62,25.064,6.62s7.705-6.62,24.806-7.171
				c17.101-0.552,23.436,7.171,23.436,7.171s5.236-8.275,25.923-7.171c20.687,1.103,24.546,7.171,24.546,7.171
				s5.791-6.62,24.271-7.171c18.48-0.552,23.169,7.171,23.169,7.171s7.999-7.447,27.306-6.62c19.308,0.827,21.79,6.62,21.79,6.62
				s6.896-6.068,24.548-6.896c17.653-0.827,24.824,6.896,24.824,6.896s8.275-6.62,22.066-6.068
				c13.791,0.552,28.134,3.716,28.134,3.716l6.068-42.898h40.27c50.2-21,68.404-97.949,68.404-97.949
				C1225.306,54.291,1199.93,36.606,1199.93,36.606z"/>
		</defs>
		<clipPath id="SVGID_4_">
			<use xlink:href="#SVGID_3_"  overflow="visible"/>
		</clipPath>
		<g clip-path="url(#SVGID_4_)">
			
				<rect x="529.603" y="26.106" fill="none" stroke="#FF06A0" stroke-linecap="round" stroke-linejoin="round" stroke-miterlimit="10" width="186" height="10"/>
			<polygon fill="#747D80" points="639.103,202.606 663.103,202.606 663.103,232.606 642.945,232.606 639.103,232.606 			"/>
			<polygon fill="#350101" points="40.546,37.236 103.434,37.236 101.227,241.208 61.509,246.793 42.104,177.05 11.86,68.87 			"/>
			<polygon fill="#9B1616" points="78.058,170.459 101.82,185.923 101.227,240.794 57.647,246.575 42.104,176.947 			"/>
			<polygon fill="#7F0D0D" points="42.449,32.685 78.058,170.873 12.688,65.399 			"/>
			<polygon fill="#720909" points="78.058,170.459 57.647,245.207 101.82,185.923 			"/>
			<polygon fill="#350101" points="101.779,28.134 154.737,28.134 153.082,245.639 99.572,241.632 			"/>
			<polygon fill="#720909" points="146.669,243.671 123.396,140.938 100.124,244.606 144.807,244.606 			"/>
			<polygon fill="#9B1616" points="123.587,137.783 153.082,31.444 100.124,31.444 			"/>
			<polygon fill="#871708" points="201.897,250.614 152.14,33.099 152.14,251.758 199.907,251.758 			"/>
			<polygon fill="#9B1616" points="206.795,28.134 317.586,28.134 314.124,300.781 202.179,295.758 			"/>
			<polygon fill="#350101" points="154.163,28.134 206.04,28.134 204.419,300.781 152.001,295.758 			"/>
			<polygon opacity="0.4" fill="#9B1616" points="172.305,149.107 202.73,84.613 149.772,84.613 			"/>
			<polygon fill="#871708" points="153.663,170.459 123.587,137.783 153.082,28.134 			"/>
			<polygon fill="#720909" points="205.103,292.736 171.837,149.107 144.878,287.118 205.103,286.957 			"/>
			<polygon fill="#871708" points="208.517,88.224 207.473,177.354 257.338,118.071 			"/>
			<polyline fill="#871708" points="78.058,170.873 119.514,119.324 103.434,30.616 40.546,30.616 78.058,170.873 			"/>
			<polygon opacity="0.8" fill="#350101" points="0,3.31 98.551,28.134 100.124,244.931 37.236,275.335 			"/>
			<polygon fill="#CF1C14" points="223.693,220.107 247.454,235.571 255.688,300.781 203.282,296.223 187.739,226.595 			"/>
			<polygon opacity="0.4" fill="#421111" points="154.737,28.134 207.695,28.134 206.04,290.818 152.53,285.978 			"/>
			<polygon fill="#9B1616" points="155.13,84.613 201.897,28.134 154.737,28.548 			"/>
			<polygon fill="#9B1616" points="249.461,244.301 296.229,300.781 249.068,300.367 			"/>
			<polygon opacity="0.7" fill="#350101" points="98.551,28.134 154.761,28.134 153.004,245.639 100.16,244.931 			"/>
			<polygon opacity="0.6" fill="#350101" points="153.164,29.789 209.374,29.789 207.617,313.171 154.773,312.248 			"/>
			<polygon fill="#871708" points="489.857,250.614 440.099,33.099 440.099,251.758 487.867,251.758 			"/>
			<polygon fill="#A20501" points="442.122,28.134 494,28.134 492.378,300.781 439.961,295.758 			"/>
			<polygon opacity="0.4" fill="#350101" points="460.265,149.107 490.69,84.613 437.732,84.613 			"/>
			<polygon fill="#720909" points="495.103,292.736 460.816,149.107 434.368,287.118 495.103,286.957 			"/>
			<polygon fill="#9B1616" points="441.434,84.613 488.202,28.134 441.042,28.548 			"/>
			<polygon fill="#871708" points="307.728,238.882 357.485,21.367 357.485,240.026 309.718,240.026 			"/>
			<polygon fill="#9B1616" points="355.39,16.606 302.126,16.606 303.791,302.069 357.609,296.859 			"/>
			<polygon opacity="0.5" fill="#350101" points="337.32,137.375 306.895,72.881 359.853,72.881 			"/>
			<polygon opacity="0.5" fill="#350101" points="382.003,140.685 351.578,76.191 404.536,76.191 			"/>
			<polygon fill="#720909" points="304.103,305.276 337.578,137.375 364.432,298.708 304.103,298.521 			"/>
			<polygon fill="#720909" points="357.646,181.06 304.23,20.673 358.713,76.145 			"/>
			<polygon fill="#720909" points="410.604,179.405 357.189,19.018 411.671,74.49 			"/>
			<polygon opacity="0.1" fill="#350101" points="439.469,28.134 495.678,28.134 493.922,311.516 441.078,310.593 			"/>
			<rect x="490.69" y="31.444" fill="#A20501" width="167.149" height="170.459"/>
			<rect x="656.103" y="30.606" fill="#C80602" width="168" height="172"/>
			<polygon fill="#EF2F0C" points="549.277,58.534 549.277,31.231 490.69,31.231 490.69,93.8 			"/>
			<polygon fill="#E20702" points="583.406,62.516 549.277,58.534 524.655,74.111 549.277,81.855 			"/>
			<polygon fill="#A20501" points="524.655,74.111 549.277,81.855 549.277,105.745 490.69,109.158 490.69,93.8 			"/>
			<polygon opacity="0.6" fill="#350101" points="241.661,70.367 266.283,95.571 266.283,173.325 207.695,184.433 207.695,134.448 
							"/>
			<polygon fill="#CF1C14" points="548.244,84.052 582.373,62.136 582.373,123.062 548.244,144.55 			"/>
			<polygon fill="#EF2F0C" points="690.773,173.906 690.773,201.209 749.36,201.209 749.36,138.64 			"/>
			<polygon fill="#E20702" points="656.184,169.925 690.313,173.906 714.935,158.329 690.313,150.585 			"/>
			<polygon fill="#A20501" points="715.395,158.329 690.773,150.585 690.773,126.695 749.36,123.282 749.36,138.64 			"/>
			<polygon opacity="0.3" fill="#350101" points="548.244,144.55 582.373,123.062 578.597,202.79 532.063,201.903 509.439,202.191 
				490.69,109.158 			"/>
			<polygon fill="#EF2F0C" points="789.244,58.534 789.244,31.231 730.656,31.231 730.656,93.8 			"/>
			<polygon fill="#E20702" points="823.373,62.516 789.244,58.534 764.622,74.111 789.244,81.855 			"/>
			<polygon fill="#A20501" points="764.622,74.111 789.244,81.855 789.244,105.745 730.656,109.158 730.656,93.8 			"/>
			<polygon fill="#CF1C14" points="788.21,84.052 822.339,62.136 822.339,123.062 788.21,144.55 			"/>
			<polygon opacity="0.3" fill="#350101" points="788.21,144.55 822.339,123.062 818.563,202.79 772.029,201.903 749.406,202.191 
				730.656,109.158 			"/>
			<rect x="354.985" y="24.824" fill="#871708" width="94.332" height="276.375"/>
			<polygon opacity="0.7" fill="#EF2F0C" points="408.608,190.929 408.608,163.626 355.689,163.626 355.689,226.196 			"/>
			<polygon opacity="0.6" fill="#E20702" points="442.736,194.911 408.608,190.929 383.986,206.506 408.608,214.251 			"/>
			<polygon fill="#A20501" points="385.556,206.507 408.608,214.251 408.608,238.141 353.756,241.554 353.756,226.196 			"/>
			<polygon opacity="0.4" fill="#CF1C14" points="407.574,216.447 441.703,194.532 441.703,255.457 407.574,276.945 			"/>
			<polygon opacity="0.6" fill="#E20702" points="445.219,30.545 411.09,26.563 386.468,42.141 411.09,49.885 			"/>
			<polygon fill="#A20501" points="386.387,42.141 409.439,49.885 409.439,73.775 354.587,77.188 354.587,61.83 			"/>
			<polygon opacity="0.4" fill="#CF1C14" points="409.439,49.885 440.099,33.099 441.703,87.489 409.439,107.803 			"/>
			<polygon opacity="0.3" fill="#350101" points="407.574,276.945 441.703,255.457 437.927,335.185 391.393,334.298 368.77,334.587 
				350.02,241.554 			"/>
			<polygon fill="#871708" points="266.283,55.224 266.283,27.921 207.695,27.921 207.695,90.491 			"/>
			<polygon fill="#7F0D0D" points="300.411,59.206 266.283,55.224 241.661,70.801 266.283,78.545 			"/>
			<polygon fill="#350101" points="265.249,123.414 299.378,58.826 299.378,238.38 265.249,301.709 			"/>
			<polyline fill="#EF2F0C" points="611.5,202.79 636.846,144.362 637.979,33.926 575.092,33.926 612.604,174.182 			"/>
			<rect x="207.695" y="23.169" opacity="0.3" fill="#350101" width="94.332" height="297.889"/>
			<line fill="#FFFFFF" stroke="#000000" stroke-miterlimit="10" x1="278.857" y1="262.769" x2="353.756" y2="332.229"/>
			<polygon fill="#350101" points="1277.637,33.926 1214.75,33.926 1216.956,237.898 1256.675,243.483 1276.079,173.74 
				1306.323,65.56 			"/>
			<polygon fill="#9B1616" points="1240.125,167.149 1216.364,182.613 1216.956,237.484 1260.536,243.265 1276.079,173.637 			"/>
			<polygon fill="#7F0D0D" points="1275.734,29.375 1240.125,167.563 1305.495,62.089 			"/>
			<polygon fill="#720909" points="1240.125,167.149 1260.536,241.897 1216.364,182.613 			"/>
			<polygon fill="#350101" points="1216.405,24.824 1163.447,24.824 1165.101,242.329 1218.611,238.322 			"/>
			<polygon fill="#720909" points="1171.514,240.516 1194.787,137.861 1218.06,241.606 1173.376,241.606 			"/>
			<polygon fill="#9B1616" points="1194.596,134.473 1165.101,28.134 1218.06,28.134 			"/>
			<polygon fill="#871708" points="1116.286,247.304 1166.044,29.789 1166.044,248.448 1118.276,248.448 			"/>
			<polygon fill="#9B1616" points="1111.389,24.824 1000.597,24.824 1004.059,297.471 1116.005,292.448 			"/>
			<polygon fill="#350101" points="1164.021,24.824 1112.143,24.824 1113.765,297.471 1166.182,292.448 			"/>
			<polygon opacity="0.4" fill="#9B1616" points="1145.878,145.797 1115.453,81.304 1168.411,81.304 			"/>
			<polygon fill="#871708" points="1164.521,167.149 1194.596,134.473 1165.101,24.824 			"/>
			<polygon fill="#720909" points="1113.103,289.426 1146.358,145.797 1173.322,283.808 1113.103,283.647 			"/>
			<polygon fill="#871708" points="1109.666,84.914 1110.711,174.045 1060.845,114.761 			"/>
			<polyline fill="#871708" points="1240.125,167.563 1198.669,116.014 1214.75,27.307 1277.637,27.307 1240.125,167.563 			"/>
			<polygon opacity="0.6" fill="#C80602" points="1318.183,0 1219.632,24.824 1218.06,241.621 1280.947,272.025 			"/>
			<polygon fill="#CF1C14" points="1094.491,216.797 1070.729,232.262 1062.495,297.471 1114.902,292.914 1130.444,223.285 			"/>
			<polygon opacity="0.4" fill="#421111" points="1163.447,24.824 1110.488,24.824 1112.143,287.508 1165.653,282.668 			"/>
			<polygon fill="#9B1616" points="1163.054,81.304 1116.286,24.824 1163.447,25.238 			"/>
			<polygon fill="#9B1616" points="1068.722,240.992 1021.955,297.471 1069.115,297.057 			"/>
			<polygon opacity="0.6" fill="#C80602" points="1219.632,24.606 1163.423,24.606 1165.179,242.22 1218.023,241.458 			"/>
			<polygon opacity="0.6" fill="#C80602" points="1166.674,24.606 1110.465,24.606 1112.221,308.097 1165.065,307.12 			"/>
			<polygon fill="#871708" points="828.327,247.304 878.084,29.789 878.084,248.448 830.317,248.448 			"/>
			<polygon fill="#C80602" points="876.061,24.606 824.184,24.606 825.805,297.362 878.223,292.284 			"/>
			<polygon opacity="0.4" fill="#350101" points="857.918,145.797 827.494,81.304 880.452,81.304 			"/>
			<polygon fill="#720909" points="825.103,289.426 858.378,145.797 885.332,283.808 825.103,283.647 			"/>
			<polygon fill="#9B1616" points="876.749,81.304 829.982,24.824 877.142,25.238 			"/>
			<polygon fill="#871708" points="1010.456,235.572 960.698,18.057 960.698,236.716 1008.465,236.716 			"/>
			<polygon fill="#9B1616" points="962.793,13.606 1016.057,13.606 1014.393,298.914 960.574,293.781 			"/>
			<polygon opacity="0.5" fill="#350101" points="980.864,134.065 1011.289,69.571 958.33,69.571 			"/>
			<polygon fill="#720909" points="1015.103,301.966 981.116,134.065 954.517,295.399 1015.103,295.211 			"/>
			<polygon fill="#720909" points="960.537,177.75 1013.953,17.363 959.471,72.835 			"/>
			<polygon opacity="0.6" fill="#C80602" points="958.362,296.606 1017.012,296.606 1015.179,17.34 960.041,18.482 			"/>
			<polygon opacity="0.6" fill="#C80602" points="878.714,24.606 822.505,24.606 824.262,308.097 877.106,307.12 			"/>
			<polygon opacity="0.6" fill="#350101" points="1076.523,67.057 1051.901,92.261 1051.901,170.015 1110.488,181.123 
				1110.488,131.138 			"/>
			<rect x="878.103" y="17.606" fill="#CF1C14" width="82" height="277"/>
			<polygon opacity="0.7" fill="#EF2F0C" points="909.576,187.619 909.576,160.316 962.495,160.316 962.495,222.886 			"/>
			<polygon opacity="0.6" fill="#E20702" points="875.447,191.601 909.576,187.619 934.198,203.197 909.576,210.941 			"/>
			<polygon fill="#A20501" points="932.628,203.197 909.576,210.941 909.576,234.831 964.428,238.244 964.428,222.886 			"/>
			<polygon opacity="0.4" fill="#CF1C14" points="910.609,213.137 876.481,191.222 876.481,252.147 910.609,273.635 			"/>
			<polygon opacity="0.3" fill="#350101" points="910.609,273.635 876.481,252.147 880.256,331.876 926.79,330.988 949.414,331.277 
				968.164,238.244 			"/>
			<polygon fill="#871708" points="1051.901,51.914 1051.901,24.611 1110.488,24.611 1110.488,87.181 			"/>
			<polygon fill="#7F0D0D" points="1017.772,55.896 1051.901,51.914 1076.523,67.491 1051.901,75.236 			"/>
			<polygon fill="#350101" points="1052.934,120.104 1018.805,55.517 1018.805,235.07 1052.934,298.399 			"/>
			<rect x="1016.103" y="19.606" opacity="0.6" fill="#C80602" width="96" height="298"/>
			<line fill="#FFFFFF" stroke="#000000" stroke-miterlimit="10" x1="1039.326" y1="259.46" x2="964.428" y2="328.919"/>
			<rect x="751.103" y="202.606" fill="#C80602" width="91" height="85"/>
			<polygon fill="#EF2F0C" points="768.906,276.007 768.906,303.31 827.494,303.31 827.494,240.741 			"/>
			<polygon fill="#E20702" points="757.509,266.799 780.653,272.025 805.275,256.448 780.653,248.704 			"/>
			<polygon fill="#A20501" points="800.603,258.264 775.981,250.52 775.981,226.63 834.569,223.217 834.569,238.575 			"/>
			<polygon fill="#9B1616" points="441.259,197.61 354.587,77.188 442.402,92.694 			"/>
		</g>
	</g>
</g>
</svg>